<svg width="153" height="59" viewBox="0 0 153 59" fill="none" xmlns="http://www.w3.org/2000/svg">
<path d="M97.8925 48.8744C97.8783 48.4733 97.7219 48.1602 97.4162 47.935C97.114 47.7099 96.6946 47.5973 96.1614 47.5973C95.2514 47.5973 94.7928 47.8717 94.7928 48.4241C94.7928 48.5753 94.8675 48.7196 95.0203 48.8568C95.1732 48.994 95.3829 49.1101 95.6566 49.2051C95.9303 49.3001 96.1791 49.3775 96.4066 49.4408C96.6341 49.5041 96.8901 49.5639 97.1745 49.6202C97.4588 49.6765 97.6259 49.7117 97.6792 49.7223C98.2124 49.8595 98.6674 49.9932 99.0478 50.1163C99.4281 50.2429 99.8404 50.4188 100.281 50.651C100.726 50.8832 101.081 51.1401 101.355 51.4215C101.628 51.703 101.859 52.0618 102.048 52.4945C102.236 52.9273 102.332 53.4128 102.332 53.9511C102.332 55.3407 101.799 56.4489 100.736 57.2687C99.6734 58.0884 98.2337 58.5 96.4244 58.5C94.5369 58.5 93.051 58.0708 91.9598 57.2124C90.872 56.3539 90.3139 55.1789 90.2891 53.6872H94.448C94.512 54.8411 95.2123 55.4181 96.5559 55.4181C97.0749 55.4181 97.4873 55.3161 97.7894 55.1191C98.0916 54.9185 98.2444 54.6476 98.2444 54.3099C98.2444 54.0953 98.1555 53.9159 97.9778 53.7646C97.8143 53.6274 97.4979 53.4761 97.0287 53.3143C96.5595 53.1524 96.005 52.98 95.3651 52.7971C94.7253 52.6142 94.3236 52.4945 94.1601 52.4312C93.6162 52.2448 93.1648 52.0618 92.8129 51.8859C92.4574 51.71 92.1162 51.4813 91.7856 51.1999C91.455 50.9184 91.2133 50.5736 91.0533 50.1655C90.8934 49.7574 90.8152 49.279 90.8152 48.7266C90.8152 47.4742 91.3199 46.4609 92.3259 45.6905C93.3319 44.92 94.6542 44.533 96.2858 44.533C98.0062 44.533 99.3464 44.913 100.303 45.6694C101.259 46.4258 101.749 47.4953 101.774 48.8744H97.8925Z" fill="#273974"/>
<path d="M119.548 58.201H115.656V56.1886C115.656 53.8209 115.706 51.2808 115.809 48.5753L113.264 58.201H110.167L107.605 48.5753C107.693 50.6053 107.743 52.9554 107.757 55.6257L107.775 58.201H103.883V44.818H109.826L110.701 48.2974C111.156 50.1655 111.504 51.8578 111.746 53.3741C111.934 52.2975 112.314 50.5737 112.887 48.2059L113.722 44.8215H119.552L119.548 58.201Z" fill="#273974"/>
<path d="M125.911 58.201H121.77V44.818H125.911V58.201Z" fill="#273974"/>
<path d="M139.19 48.2552H135.391V58.201H131.249V48.2552H127.471V44.8145H139.19V48.2552Z" fill="#273974"/>
<path d="M153.001 58.201H148.86V52.9202H144.946V58.201H140.787V44.818H144.946V49.3106H148.86V44.818H153.001V58.201Z" fill="#273974"/>
<path d="M64.5596 18.5375C58.2003 18.5375 51.8446 18.534 45.4853 18.5445C45.1085 18.5445 45.016 18.4671 45.0551 18.0801C45.3289 15.2973 46.1642 12.6974 47.5576 10.2699C47.6998 10.0201 47.8491 9.9075 48.1548 9.9075C59.1281 9.91806 70.0978 9.91806 81.071 9.9075C81.3554 9.9075 81.5047 9.99545 81.6504 10.2417C83.0545 12.6657 83.8828 15.2691 84.1672 18.0485C84.2063 18.4284 84.1387 18.548 83.7157 18.548C77.3315 18.5305 70.9473 18.5375 64.5596 18.5375Z" fill="#E9373A"/>
<path d="M64.6448 21.162C71.0041 21.162 77.3598 21.1655 83.7191 21.1515C84.103 21.1515 84.2061 21.2465 84.167 21.6229C83.8862 24.4339 83.0402 27.0619 81.6218 29.5106C81.4619 29.7885 81.2557 29.785 81.0069 29.785C70.4744 29.7815 59.9419 29.785 49.4059 29.785C49.0504 29.785 48.6879 29.7568 48.3359 29.792C47.9094 29.8377 47.6819 29.6724 47.4757 29.303C46.1214 26.8825 45.3109 24.3037 45.0443 21.549C45.0088 21.1866 45.1545 21.162 45.4496 21.162C51.848 21.162 58.2464 21.162 64.6448 21.162Z" fill="#FDD738"/>
<path d="M79.4672 32.4341C72.1197 41.2682 57.5598 41.6411 49.7324 32.4341C59.6499 32.4341 69.539 32.4341 79.4672 32.4341Z" fill="#119448"/>
<path d="M79.4214 7.27594C69.5395 7.27594 59.6575 7.27594 49.6582 7.27594C53.4368 3.14213 58.0046 0.802566 63.5285 0.528151C69.8914 0.211519 75.1878 2.53701 79.4748 7.16336C79.457 7.20206 79.4392 7.23724 79.4214 7.27594Z" fill="#3098D4"/>
<path d="M142.002 14.0835H131.811C131.864 14.08 131.921 14.08 131.985 14.08C135.323 14.0835 138.664 14.0835 142.002 14.0835Z" fill="#273974"/>
<path d="M145.663 14.0835V25.5456H131.352C132.052 22.5411 132.187 19.315 131.75 15.9024C131.671 15.2832 131.568 14.6781 131.444 14.0835H142.001C142.766 14.0835 143.526 14.087 144.287 14.0835H145.663Z" fill="#273974"/>
<path d="M153 0.507034V11.9691H152.559C145.485 11.9586 138.408 11.9586 131.33 11.9691H130.904C129.454 7.25482 126.524 3.36376 122.27 0.507034H153Z" fill="#273974"/>
<path d="M125.824 27.6178C125.806 27.6565 125.788 27.6987 125.771 27.7374C123.986 31.7903 121.228 34.7667 117.581 36.7087C116.262 37.4088 114.826 37.9787 113.276 38.4114C110.716 39.1256 107.471 39.0517 104.272 39.0975C103.966 39.101 103.71 39.1045 103.54 39.1045V27.7304H103.895V27.7339H103.956C105.345 27.7409 106.739 27.7691 108.122 27.5756C109.252 27.4208 110.35 27.1569 111.392 26.689C113.308 25.82 114.602 24.3917 115.181 22.3687C115.661 20.6941 115.714 18.9948 115.348 17.2956C114.762 14.5937 112.988 13.007 110.404 12.2224C109.064 11.8108 107.684 11.6455 106.291 11.6243C104.94 11.6032 103.589 11.6384 102.239 11.6103C102.153 11.6068 102.082 11.6138 102.025 11.6279C101.823 11.6666 101.787 11.8038 101.787 12.0817C101.787 13.2919 101.791 14.5022 101.787 15.7124C101.794 21.6194 101.794 27.5263 101.794 33.4368V38.4607C101.794 38.5698 101.798 38.6542 101.798 38.7246V39.0975H90.2949V38.5205C90.2985 36.8248 90.302 35.1325 90.302 33.4368C90.3091 28.8667 90.3056 24.3002 90.3056 19.7301V15.7124H90.2949V0.5H90.7748C93.6043 0.510554 96.4338 0.5 99.2669 0.5C100.184 0.5 101.105 0.5 102.025 0.507036C103.433 0.510554 104.841 0.517591 106.248 0.535181C110.198 0.587953 114.044 1.24936 117.581 3.07176C117.701 3.13508 117.819 3.19841 117.94 3.26174C121.8 5.34447 124.526 8.23286 126.019 11.9656C126.574 13.3518 126.954 14.854 127.164 16.4794C127.654 20.3001 127.367 24.061 125.824 27.6178Z" fill="#273974"/>
<path d="M152.998 27.7374V39.1995H152.654C142.818 39.1889 123.072 39.1819 122.947 39.1714C124.305 38.0104 125.503 36.7896 126.598 35.4738C128.318 33.4016 129.594 31.0832 130.433 28.536C130.437 28.529 130.437 28.5255 130.44 28.5184C130.515 28.3249 130.586 28.1244 130.657 27.9274V27.9239C130.679 27.8605 130.7 27.8007 130.725 27.7374H152.998Z" fill="#273974"/>
<path d="M10.0064 36.8599C6.98492 35.3014 4.56064 33.0498 2.73709 30.1086C0.913549 27.1675 0 23.7478 0 19.8498C0 15.9517 0.913549 12.532 2.73709 9.59086C4.56064 6.6497 6.98492 4.3981 10.0064 2.83956C13.0279 1.28103 16.2768 0.5 19.7497 0.5C22.8778 0.5 25.7856 1.11919 28.48 2.36109C31.1709 3.603 33.4494 5.40076 35.3085 7.75792C37.1676 10.1151 38.426 12.9049 39.0871 16.1311H27.7762C27.1506 14.4283 26.1517 13.0738 24.7796 12.0641C23.4075 11.0544 21.7652 10.5478 19.8564 10.5478C18.1892 10.5478 16.6963 10.9383 15.3739 11.7158C14.0516 12.4968 13.0207 13.5945 12.2743 15.0123C11.5278 16.4301 11.1545 18.0414 11.1545 19.8498C11.1545 21.6581 11.5278 23.2694 12.2743 24.6872C13.0207 26.105 14.0552 27.2027 15.3739 27.9837C16.6927 28.7647 18.1892 29.1517 19.8564 29.1517C21.8363 29.1517 23.5141 28.6451 24.8862 27.6354C26.2583 26.6257 27.2394 25.2712 27.8295 23.5684H39.1902C38.529 26.7946 37.2636 29.5844 35.3867 31.9416C33.5099 34.2987 31.2171 36.0965 28.5084 37.3384C25.7998 38.5768 22.8814 39.1995 19.7533 39.1995C16.2768 39.1995 13.0279 38.422 10.0064 36.8599Z" fill="#273974"/>
</svg>
